<svg width="512" height="512" viewBox="0 0 512 512" fill="none" xmlns="http://www.w3.org/2000/svg">
<rect x="4" y="4" width="504" height="504" fill="white"/>
<path d="M190.307 350V163.818H263.761C277.883 163.818 289.913 166.515 299.852 171.909C309.792 177.242 317.367 184.667 322.58 194.182C327.852 203.636 330.489 214.545 330.489 226.909C330.489 239.273 327.822 250.182 322.489 259.636C317.155 269.091 309.428 276.455 299.307 281.727C289.246 287 277.064 289.636 262.761 289.636H215.943V258.091H256.398C263.973 258.091 270.216 256.788 275.125 254.182C280.095 251.515 283.792 247.848 286.216 243.182C288.701 238.455 289.943 233.03 289.943 226.909C289.943 220.727 288.701 215.333 286.216 210.727C283.792 206.061 280.095 202.455 275.125 199.909C270.155 197.303 263.852 196 256.216 196H229.67V350H190.307Z" fill="black"/>
<rect x="4" y="4" width="504" height="504" stroke="black" stroke-width="8"/>
</svg>
